<svg xmlns="http://www.w3.org/2000/svg" xmlns:xlink="http://www.w3.org/1999/xlink" version="1.1" width="512px" height="512px" style="shape-rendering:geometricPrecision; text-rendering:geometricPrecision; image-rendering:optimizeQuality; fill-rule:evenodd; clip-rule:evenodd">
<g><path style="opacity:1" fill="#d94953" d="M 91.5,-0.5 C 108.833,-0.5 126.167,-0.5 143.5,-0.5C 143.333,32.5017 143.5,65.5017 144,98.5C 155.066,87.4336 166.066,76.4336 177,65.5C 187.934,76.4336 198.934,87.4336 210,98.5C 210.5,65.5017 210.667,32.5017 210.5,-0.5C 295.833,-0.5 381.167,-0.5 466.5,-0.5C 466.5,139.5 466.5,279.5 466.5,419.5C 341.5,419.5 216.5,419.5 91.5,419.5C 91.5,279.5 91.5,139.5 91.5,-0.5 Z"/></g>
<g><path style="opacity:1" fill="#f3db45" d="M 143.5,-0.5 C 165.833,-0.5 188.167,-0.5 210.5,-0.5C 210.667,32.5017 210.5,65.5017 210,98.5C 198.934,87.4336 187.934,76.4336 177,65.5C 166.066,76.4336 155.066,87.4336 144,98.5C 143.5,65.5017 143.333,32.5017 143.5,-0.5 Z"/></g>
<g><path style="opacity:0.999" fill="#c32530" d="M 81.5,-0.5 C 84.8333,-0.5 88.1667,-0.5 91.5,-0.5C 91.5,139.5 91.5,279.5 91.5,419.5C 216.5,419.5 341.5,419.5 466.5,419.5C 466.5,428.167 466.5,436.833 466.5,445.5C 339.5,445.333 212.5,445.5 85.5,446C 71.4704,452.238 67.637,462.405 74,476.5C 77.011,480.52 80.8443,483.353 85.5,485C 212.5,485.5 339.5,485.667 466.5,485.5C 466.5,494.167 466.5,502.833 466.5,511.5C 338.167,511.5 209.833,511.5 81.5,511.5C 60.3874,505.883 48.2207,492.216 45,470.5C 44.3333,327.167 44.3333,183.833 45,40.5C 48.249,18.7578 60.4157,5.09111 81.5,-0.5 Z"/></g>
<g><path style="opacity:1" fill="#c32430" d="M 168.5,120.5 C 233.501,120.333 298.501,120.5 363.5,121C 379.777,124.609 390.277,134.442 395,150.5C 395.667,189.5 395.667,228.5 395,267.5C 389.954,284.432 378.787,294.599 361.5,298C 297.5,298.667 233.5,298.667 169.5,298C 153.43,293.719 143.263,283.552 139,267.5C 138.333,228.5 138.333,189.5 139,150.5C 143.683,135.317 153.517,125.317 168.5,120.5 Z"/></g>
<g><path style="opacity:1" fill="#dee8ed" d="M 171.5,135.5 C 234.834,135.333 298.168,135.5 361.5,136C 371,138.833 377.167,145 380,154.5C 380.667,190.5 380.667,226.5 380,262.5C 377.976,273.526 371.476,280.359 360.5,283C 298.167,283.667 235.833,283.667 173.5,283C 163.433,280.6 156.933,274.434 154,264.5C 153.333,227.833 153.333,191.167 154,154.5C 156.928,145.408 162.762,139.075 171.5,135.5 Z"/></g>
<g><path style="opacity:1" fill="#665e66" d="M 190.5,181.5 C 241.168,181.333 291.834,181.5 342.5,182C 349.167,186.667 349.167,191.333 342.5,196C 292.167,196.667 241.833,196.667 191.5,196C 185.205,191.663 184.872,186.829 190.5,181.5 Z"/></g>
<g><path style="opacity:1" fill="#665e66" d="M 190.5,222.5 C 241.501,222.333 292.501,222.5 343.5,223C 349.282,228.736 348.616,233.402 341.5,237C 291.5,237.667 241.5,237.667 191.5,237C 185.205,232.663 184.872,227.829 190.5,222.5 Z"/></g>
<g><path style="opacity:0.998" fill="#dee9ee" d="M 466.5,445.5 C 466.5,458.833 466.5,472.167 466.5,485.5C 339.5,485.667 212.5,485.5 85.5,485C 80.8443,483.353 77.011,480.52 74,476.5C 67.637,462.405 71.4704,452.238 85.5,446C 212.5,445.5 339.5,445.333 466.5,445.5 Z"/></g>
</svg>