<svg xmlns="http://www.w3.org/2000/svg" xmlns:xlink="http://www.w3.org/1999/xlink" version="1.1" width="512px" height="512px" style="shape-rendering:geometricPrecision; text-rendering:geometricPrecision; image-rendering:optimizeQuality; fill-rule:evenodd; clip-rule:evenodd">
<g><path style="opacity:0.932" fill="#f4b425" d="M 149.5,-0.5 C 154.833,-0.5 160.167,-0.5 165.5,-0.5C 176.993,2.97898 187.326,8.64565 196.5,16.5C 199.165,19.3347 201.665,22.3347 204,25.5C 206.323,36.81 203.49,46.4767 195.5,54.5C 181.359,60.3399 171.192,56.3399 165,42.5C 162.492,32.0152 166.325,27.8485 176.5,30C 179.181,32.194 180.681,35.0273 181,38.5C 185.739,41.8372 188.239,40.5039 188.5,34.5C 188.244,31.729 186.91,29.5624 184.5,28C 176.889,21.2781 168.055,17.1115 158,15.5C 154.871,15.3291 152.037,16.1624 149.5,18C 142.207,25.5514 140.04,34.3847 143,44.5C 148.283,55.1162 155.116,64.6162 163.5,73C 174.058,82.3991 184.725,91.5658 195.5,100.5C 198.501,105.168 201.001,110.168 203,115.5C 204.216,122.821 203.382,129.821 200.5,136.5C 194.526,144.836 186.526,147.336 176.5,144C 166.333,138.516 162.666,130.349 165.5,119.5C 169.085,116.155 173.085,115.655 177.5,118C 179.511,120.877 180.845,124.044 181.5,127.5C 184.233,129.753 186.4,129.086 188,125.5C 187.89,118.12 184.723,112.286 178.5,108C 162.703,95.8706 148.537,82.0372 136,66.5C 129.605,57.4818 126.105,47.4818 125.5,36.5C 125.763,18.936 133.763,6.60262 149.5,-0.5 Z"/></g>
<g><path style="opacity:0.974" fill="#f4b425" d="M 347.5,-0.5 C 352.833,-0.5 358.167,-0.5 363.5,-0.5C 381.183,8.18264 389.016,22.516 387,42.5C 384.649,53.8696 379.649,63.8696 372,72.5C 356.971,87.8625 341.638,102.862 326,117.5C 323.309,122.38 324.142,126.38 328.5,129.5C 329.814,128.687 330.981,127.687 332,126.5C 332.427,118.405 336.594,115.239 344.5,117C 349.317,122.62 349.817,128.787 346,135.5C 338.95,145.514 329.784,148.014 318.5,143C 315.667,141.5 313.5,139.333 312,136.5C 300.569,150.305 286.403,160.305 269.5,166.5C 265.112,167.964 260.779,169.63 256.5,171.5C 252.06,170.021 247.726,168.355 243.5,166.5C 238.338,164.967 233.671,162.634 229.5,159.5C 239.928,154.25 249.095,147.25 257,138.5C 259.973,133.921 261.973,128.921 263,123.5C 263.5,84.8348 263.667,46.1681 263.5,7.5C 278.504,7.33342 293.504,7.50008 308.5,8C 312.641,9.47409 315.474,12.3074 317,16.5C 325.89,8.42127 336.056,2.75461 347.5,-0.5 Z M 350.5,15.5 C 361.899,15.3808 368.732,21.0475 371,32.5C 371.497,39.6734 369.83,46.3401 366,52.5C 363.578,56.3438 360.911,60.0105 358,63.5C 344.714,76.6316 331.047,89.2982 317,101.5C 316.333,85.5 316.333,69.5 317,53.5C 327.678,59.4313 337.011,57.7646 345,48.5C 348.484,43.453 349.151,38.1197 347,32.5C 343.017,27.6764 338.683,27.343 334,31.5C 333.058,34.4429 331.892,37.2762 330.5,40C 328.299,40.8249 326.466,40.3249 325,38.5C 324.333,36.1667 324.333,33.8333 325,31.5C 332.536,24.4899 341.036,19.1566 350.5,15.5 Z"/></g>
<g><path style="opacity:0.988" fill="#fbde6b" d="M 263.5,7.5 C 263.667,46.1681 263.5,84.8348 263,123.5C 261.973,128.921 259.973,133.921 257,138.5C 249.095,147.25 239.928,154.25 229.5,159.5C 217.739,154.399 208.073,146.732 200.5,136.5C 203.382,129.821 204.216,122.821 203,115.5C 201.001,110.168 198.501,105.168 195.5,100.5C 195.5,85.1667 195.5,69.8333 195.5,54.5C 203.49,46.4767 206.323,36.81 204,25.5C 201.665,22.3347 199.165,19.3347 196.5,16.5C 197.576,12.2553 200.242,9.42195 204.5,8C 224.164,7.50005 243.831,7.33338 263.5,7.5 Z"/></g>
<g><path style="opacity:0.969" fill="#e4e9f6" d="M 243.5,166.5 C 247.726,168.355 252.06,170.021 256.5,171.5C 260.779,169.63 265.112,167.964 269.5,166.5C 272.167,185.167 274.833,203.833 277.5,222.5C 270.5,222.5 263.5,222.5 256.5,222.5C 249.5,222.5 242.5,222.5 235.5,222.5C 237.887,203.79 240.554,185.123 243.5,166.5 Z"/></g>
<g><path style="opacity:0.982" fill="#ffa53a" d="M 235.5,222.5 C 242.5,222.5 249.5,222.5 256.5,222.5C 256.5,236.167 256.5,249.833 256.5,263.5C 238.5,263.5 220.5,263.5 202.5,263.5C 202.334,253.494 202.5,243.494 203,233.5C 203.517,228.963 205.684,225.463 209.5,223C 218.16,222.5 226.827,222.334 235.5,222.5 Z"/></g>
<g><path style="opacity:1" fill="#ff8533" d="M 256.5,222.5 C 263.5,222.5 270.5,222.5 277.5,222.5C 285.84,222.334 294.173,222.5 302.5,223C 304.624,224.122 306.457,225.622 308,227.5C 309.459,239.399 309.959,251.399 309.5,263.5C 302.167,263.5 294.833,263.5 287.5,263.5C 277.167,263.5 266.833,263.5 256.5,263.5C 256.5,249.833 256.5,236.167 256.5,222.5 Z"/></g>
<g><path style="opacity:0.998" fill="#fb477d" d="M 202.5,263.5 C 220.5,263.5 238.5,263.5 256.5,263.5C 266.833,263.5 277.167,263.5 287.5,263.5C 287.5,346.167 287.5,428.833 287.5,511.5C 249.167,511.5 210.833,511.5 172.5,511.5C 172.826,451.458 172.492,391.458 171.5,331.5C 171.062,311.787 171.562,292.12 173,272.5C 174.627,267.938 177.794,265.105 182.5,264C 189.158,263.5 195.825,263.334 202.5,263.5 Z"/></g>
<g><path style="opacity:1" fill="#d82665" d="M 287.5,263.5 C 294.833,263.5 302.167,263.5 309.5,263.5C 316.508,263.334 323.508,263.5 330.5,264C 335,265.833 338.167,269 340,273.5C 340.5,309.165 340.667,344.832 340.5,380.5C 340.5,424.167 340.5,467.833 340.5,511.5C 322.833,511.5 305.167,511.5 287.5,511.5C 287.5,428.833 287.5,346.167 287.5,263.5 Z"/></g>
<g><path style="opacity:0.998" fill="#7fd09b" d="M 120.5,325.5 C 120.5,387.5 120.5,449.5 120.5,511.5C 84.1667,511.5 47.8333,511.5 11.5,511.5C 9.19301,510.023 7.35968,508.023 6,505.5C 5.00828,447.751 5.34162,390.084 7,332.5C 9.2643,329.567 12.0976,327.4 15.5,326C 50.4984,325.5 85.4984,325.333 120.5,325.5 Z"/></g>
<g><path style="opacity:1" fill="#3caa8b" d="M 120.5,325.5 C 134.837,325.333 149.171,325.5 163.5,326C 166.597,327.273 169.264,329.107 171.5,331.5C 172.492,391.458 172.826,451.458 172.5,511.5C 155.167,511.5 137.833,511.5 120.5,511.5C 120.5,449.5 120.5,387.5 120.5,325.5 Z"/></g>
<g><path style="opacity:1" fill="#f8f6fb" d="M 256.5,421.5 C 256.833,399.823 256.5,378.156 255.5,356.5C 254.893,356.624 254.56,356.957 254.5,357.5C 248.713,364.738 245.88,363.738 246,354.5C 250.833,349.667 255.667,344.833 260.5,340C 263.636,338.959 266.136,339.793 268,342.5C 268.667,368.833 268.667,395.167 268,421.5C 263.972,425.388 260.139,425.388 256.5,421.5 Z"/></g>
<g><path style="opacity:1" fill="#f9bdd2" d="M 254.5,357.5 C 254.56,356.957 254.893,356.624 255.5,356.5C 256.5,378.156 256.833,399.823 256.5,421.5C 255.833,400.167 255.167,378.833 254.5,357.5 Z"/></g>
<g><path style="opacity:1" fill="#f5fafc" d="M 79.5,364.5 C 92.8078,363.069 102.641,368.069 109,379.5C 111.902,388.713 110.236,397.046 104,404.5C 94.1847,413.072 84.1847,421.405 74,429.5C 72.7114,432.351 72.2114,435.351 72.5,438.5C 84.5046,438.333 96.5046,438.5 108.5,439C 111.167,442.333 111.167,445.667 108.5,449C 93.5,449.667 78.5,449.667 63.5,449C 62.5838,448.626 61.7504,448.126 61,447.5C 57.7165,435.147 60.8832,424.98 70.5,417C 77.7843,412.05 84.7843,406.717 91.5,401C 96.9519,395.972 98.7853,389.806 97,382.5C 95.8333,380 94,378.167 91.5,377C 86.163,375.857 81.163,376.524 76.5,379C 74.5244,382.935 72.8577,386.935 71.5,391C 63.164,392.327 59.9974,388.827 62,380.5C 65.5276,372.465 71.3609,367.132 79.5,364.5 Z"/></g>
<g><path style="opacity:0.997" fill="#99e1fe" d="M 454.5,373.5 C 454.5,419.5 454.5,465.5 454.5,511.5C 416.5,511.5 378.5,511.5 340.5,511.5C 340.5,467.833 340.5,424.167 340.5,380.5C 343.062,377.777 346.062,375.611 349.5,374C 384.498,373.5 419.498,373.333 454.5,373.5 Z"/></g>
<g><path style="opacity:1" fill="#66bbdd" d="M 454.5,373.5 C 468.504,373.333 482.504,373.5 496.5,374C 501.573,375.406 505.073,378.572 507,383.5C 507.667,423.833 507.667,464.167 507,504.5C 505.629,507.266 503.796,509.599 501.5,511.5C 485.833,511.5 470.167,511.5 454.5,511.5C 454.5,465.5 454.5,419.5 454.5,373.5 Z"/></g>
<g><path style="opacity:1" fill="#f6faff" d="M 417.5,401.5 C 444.004,398.826 453.504,410.159 446,435.5C 444.167,437.333 442.333,439.167 440.5,441C 451.04,447.344 454.54,456.511 451,468.5C 448.268,478.567 441.768,484.4 431.5,486C 420.948,488.239 411.781,485.739 404,478.5C 400.595,474.031 399.261,469.031 400,463.5C 407.853,459.12 412.186,461.454 413,470.5C 414.558,472.359 416.391,473.859 418.5,475C 423.167,475.667 427.833,475.667 432.5,475C 435,473.833 436.833,472 438,469.5C 443.124,455.219 438.291,447.385 423.5,446C 420.833,443 420.833,440 423.5,437C 432.745,437.921 437.411,433.754 437.5,424.5C 436.419,413.441 430.419,409.608 419.5,413C 414.853,415.624 412.52,419.624 412.5,425C 403.6,428.764 400.1,425.931 402,416.5C 404.503,408.679 409.67,403.679 417.5,401.5 Z"/></g>
</svg>