<svg xmlns="http://www.w3.org/2000/svg" xmlns:xlink="http://www.w3.org/1999/xlink" version="1.1" width="512px" height="512px" style="shape-rendering:geometricPrecision; text-rendering:geometricPrecision; image-rendering:optimizeQuality; fill-rule:evenodd; clip-rule:evenodd">
<g><path style="opacity:0.992" fill="#fec650" d="M 121.5,59.5 C 109.14,62.1754 97.8068,67.1754 87.5,74.5C 81.1667,78.8333 75.8333,84.1667 71.5,90.5C 65.6256,97.5765 61.2922,105.577 58.5,114.5C 55.8605,119.085 54.1938,124.085 53.5,129.5C 51.6439,136.288 50.3105,143.288 49.5,150.5C 43.8838,135.02 32.8838,128.853 16.5,132C 8.89337,135.438 3.56003,140.938 0.5,148.5C 1.91302,117.506 14.5797,92.3397 38.5,73C 48.2633,66.4519 58.93,62.1186 70.5,60C 87.4967,59.5001 104.497,59.3334 121.5,59.5 Z"/></g>
<g><path style="opacity:0.996" fill="#fec650" d="M 389.5,59.5 C 460.759,48.8244 501.426,78.8244 511.5,149.5C 511.5,177.167 511.5,204.833 511.5,232.5C 491.833,232.5 472.167,232.5 452.5,232.5C 466.088,225.332 469.254,214.998 462,201.5C 459.002,198.262 455.502,195.929 451.5,194.5C 455.56,193.945 458.727,191.945 461,188.5C 462.351,182.928 462.851,177.262 462.5,171.5C 462.74,165.773 462.407,160.106 461.5,154.5C 461.268,145.863 459.935,137.53 457.5,129.5C 456.576,124.393 455.242,119.393 453.5,114.5C 450.364,106.062 446.031,98.395 440.5,91.5C 435.833,84.8333 430.167,79.1667 423.5,74.5C 415.008,67.7579 405.341,63.4245 394.5,61.5C 392.833,60.8333 391.167,60.1667 389.5,59.5 Z"/></g>
<g><path style="opacity:1" fill="#b65534" d="M 121.5,59.5 C 210.833,59.5 300.167,59.5 389.5,59.5C 391.167,60.1667 392.833,60.8333 394.5,61.5C 393.861,62.0968 393.528,62.9302 393.5,64C 394.234,67.501 394.9,71.001 395.5,74.5C 292.833,74.5 190.167,74.5 87.5,74.5C 97.8068,67.1754 109.14,62.1754 121.5,59.5 Z"/></g>
<g><path style="opacity:1" fill="#a2422b" d="M 394.5,61.5 C 405.341,63.4245 415.008,67.7579 423.5,74.5C 414.167,74.5 404.833,74.5 395.5,74.5C 394.9,71.001 394.234,67.501 393.5,64C 393.528,62.9302 393.861,62.0968 394.5,61.5 Z"/></g>
<g><path style="opacity:1" fill="#a1412b" d="M 87.5,74.5 C 190.167,74.5 292.833,74.5 395.5,74.5C 395.5,80.1667 395.5,85.8333 395.5,91.5C 287.332,91.8328 179.332,91.4995 71.5,90.5C 75.8333,84.1667 81.1667,78.8333 87.5,74.5 Z"/></g>
<g><path style="opacity:1" fill="#80392c" d="M 395.5,74.5 C 404.833,74.5 414.167,74.5 423.5,74.5C 430.167,79.1667 435.833,84.8333 440.5,91.5C 425.5,91.5 410.5,91.5 395.5,91.5C 395.5,85.8333 395.5,80.1667 395.5,74.5 Z"/></g>
<g><path style="opacity:1" fill="#b45334" d="M 71.5,90.5 C 179.332,91.4995 287.332,91.8328 395.5,91.5C 395.666,99.3323 394.666,106.999 392.5,114.5C 281.167,114.5 169.833,114.5 58.5,114.5C 61.2922,105.577 65.6256,97.5765 71.5,90.5 Z"/></g>
<g><path style="opacity:1" fill="#a1412b" d="M 395.5,91.5 C 410.5,91.5 425.5,91.5 440.5,91.5C 446.031,98.395 450.364,106.062 453.5,114.5C 433.167,114.5 412.833,114.5 392.5,114.5C 394.666,106.999 395.666,99.3323 395.5,91.5 Z"/></g>
<g><path style="opacity:1" fill="#a1412b" d="M 58.5,114.5 C 169.833,114.5 281.167,114.5 392.5,114.5C 391.032,120.237 389.365,125.904 387.5,131.5C 411.191,132.157 434.524,131.49 457.5,129.5C 459.935,137.53 461.268,145.863 461.5,154.5C 432.167,154.5 402.833,154.5 373.5,154.5C 378.603,147.705 382.936,140.372 386.5,132.5C 275.164,132.166 164.164,131.166 53.5,129.5C 54.1938,124.085 55.8605,119.085 58.5,114.5 Z"/></g>
<g><path style="opacity:1" fill="#7f392c" d="M 392.5,114.5 C 412.833,114.5 433.167,114.5 453.5,114.5C 455.242,119.393 456.576,124.393 457.5,129.5C 434.524,131.49 411.191,132.157 387.5,131.5C 389.365,125.904 391.032,120.237 392.5,114.5 Z"/></g>
<g><path style="opacity:1" fill="#fedf58" d="M 49.5,150.5 C 49.5,151.833 49.5,153.167 49.5,154.5C 49.5,160.167 49.5,165.833 49.5,171.5C 49.334,176.844 49.5006,182.177 50,187.5C 51.4802,190.817 53.9802,192.817 57.5,193.5C 62.3054,194.487 67.3054,194.821 72.5,194.5C 56.7953,204.675 55.462,216.508 68.5,230C 70.087,230.862 71.7536,231.529 73.5,232C 90.4967,232.5 107.497,232.667 124.5,232.5C 134.833,232.5 145.167,232.5 155.5,232.5C 155.5,232.833 155.5,233.167 155.5,233.5C 112.81,233.812 70.143,233.478 27.5,232.5C 12.7345,228.068 3.40114,218.401 -0.5,203.5C -0.5,185.5 -0.5,167.5 -0.5,149.5C 0.166667,149.5 0.5,149.167 0.5,148.5C 3.56003,140.938 8.89337,135.438 16.5,132C 32.8838,128.853 43.8838,135.02 49.5,150.5 Z"/></g>
<g><path style="opacity:1" fill="#b55434" d="M 53.5,129.5 C 164.164,131.166 275.164,132.166 386.5,132.5C 382.936,140.372 378.603,147.705 373.5,154.5C 339.5,154.5 305.5,154.5 271.5,154.5C 266.402,149.955 260.402,147.622 253.5,147.5C 246.225,147.306 239.891,149.639 234.5,154.5C 172.833,154.5 111.167,154.5 49.5,154.5C 49.5,153.167 49.5,151.833 49.5,150.5C 50.3105,143.288 51.6439,136.288 53.5,129.5 Z"/></g>
<g><path style="opacity:1" fill="#fef6c6" d="M 253.5,147.5 C 274.809,176.692 278.809,208.025 265.5,241.5C 265.666,234.825 265.5,228.158 265,221.5C 261.025,212.429 254.525,209.929 245.5,214C 243.383,215.731 241.883,217.898 241,220.5C 240.333,230.833 240.333,241.167 241,251.5C 243.239,257.908 247.739,260.908 254.5,260.5C 241.698,278.591 224.365,290.258 202.5,295.5C 192.068,281.535 193.401,268.702 206.5,257C 210.301,254.584 214.301,253.084 218.5,252.5C 219.491,246.021 219.824,239.354 219.5,232.5C 219.5,228.167 219.5,223.833 219.5,219.5C 204.245,217.577 196.245,208.91 195.5,193.5C 196.242,184.012 200.576,176.678 208.5,171.5C 214.681,169.748 221.014,169.081 227.5,169.5C 228.496,163.843 230.829,158.843 234.5,154.5C 239.891,149.639 246.225,147.306 253.5,147.5 Z"/></g>
<g><path style="opacity:1" fill="#fef270" d="M 253.5,147.5 C 260.402,147.622 266.402,149.955 271.5,154.5C 274.806,159.271 277.639,164.271 280,169.5C 286.016,168.292 291.849,168.958 297.5,171.5C 305.71,176.915 310.044,184.582 310.5,194.5C 309.284,209.382 301.284,217.716 286.5,219.5C 286.5,223.833 286.5,228.167 286.5,232.5C 286.5,239.167 286.5,245.833 286.5,252.5C 287.5,252.5 288.5,252.5 289.5,252.5C 290.209,253.404 291.209,253.737 292.5,253.5C 287.91,279.497 273.577,297.997 249.5,309C 243.613,311.138 237.613,312.638 231.5,313.5C 229.652,309.972 227.985,306.305 226.5,302.5C 217.968,304.766 210.301,303.099 203.5,297.5C 203.167,296.833 202.833,296.167 202.5,295.5C 224.365,290.258 241.698,278.591 254.5,260.5C 263.529,257.458 267.196,251.125 265.5,241.5C 278.809,208.025 274.809,176.692 253.5,147.5 Z"/></g>
<g><path style="opacity:1" fill="#a1412b" d="M 49.5,154.5 C 111.167,154.5 172.833,154.5 234.5,154.5C 230.829,158.843 228.496,163.843 227.5,169.5C 221.014,169.081 214.681,169.748 208.5,171.5C 155.5,171.5 102.5,171.5 49.5,171.5C 49.5,165.833 49.5,160.167 49.5,154.5 Z"/></g>
<g><path style="opacity:1" fill="#7f392c" d="M 373.5,154.5 C 402.833,154.5 432.167,154.5 461.5,154.5C 462.407,160.106 462.74,165.773 462.5,171.5C 427.498,171.667 392.498,171.5 357.5,171C 363.708,166.293 369.042,160.793 373.5,154.5 Z"/></g>
<g><path style="opacity:1" fill="#b55434" d="M 49.5,171.5 C 102.5,171.5 155.5,171.5 208.5,171.5C 200.576,176.678 196.242,184.012 195.5,193.5C 149.5,193.5 103.5,193.5 57.5,193.5C 53.9802,192.817 51.4802,190.817 50,187.5C 49.5006,182.177 49.334,176.844 49.5,171.5 Z"/></g>
<g><path style="opacity:1" fill="#b75a35" d="M 297.5,171.5 C 317.169,171.333 336.836,171.5 356.5,172C 345.127,181.856 332.127,188.856 317.5,193C 361.669,193.167 405.669,193.667 449.5,194.5C 441.833,194.5 434.167,194.5 426.5,194.5C 415.5,194.5 404.5,194.5 393.5,194.5C 374.833,194.5 356.167,194.5 337.5,194.5C 328.5,194.5 319.5,194.5 310.5,194.5C 310.044,184.582 305.71,176.915 297.5,171.5 Z"/></g>
<g><path style="opacity:1" fill="#a1412b" d="M 271.5,154.5 C 305.5,154.5 339.5,154.5 373.5,154.5C 369.042,160.793 363.708,166.293 357.5,171C 392.498,171.5 427.498,171.667 462.5,171.5C 462.851,177.262 462.351,182.928 461,188.5C 458.727,191.945 455.56,193.945 451.5,194.5C 450.833,194.5 450.167,194.5 449.5,194.5C 405.669,193.667 361.669,193.167 317.5,193C 332.127,188.856 345.127,181.856 356.5,172C 336.836,171.5 317.169,171.333 297.5,171.5C 291.849,168.958 286.016,168.292 280,169.5C 277.639,164.271 274.806,159.271 271.5,154.5 Z"/></g>
<g><path style="opacity:1" fill="#fff26f" d="M 72.5,194.5 C 89.1667,194.5 105.833,194.5 122.5,194.5C 136.634,200.449 140.468,210.449 134,224.5C 131.228,227.783 128.061,230.45 124.5,232.5C 107.497,232.667 90.4967,232.5 73.5,232C 71.7536,231.529 70.087,230.862 68.5,230C 55.462,216.508 56.7953,204.675 72.5,194.5 Z"/></g>
<g><path style="opacity:1" fill="#ffdf59" d="M 122.5,194.5 C 134.171,194.333 145.838,194.5 157.5,195C 169.774,199.382 174.274,207.882 171,220.5C 168.167,226.507 163.667,230.507 157.5,232.5C 156.833,232.5 156.167,232.5 155.5,232.5C 145.167,232.5 134.833,232.5 124.5,232.5C 128.061,230.45 131.228,227.783 134,224.5C 140.468,210.449 136.634,200.449 122.5,194.5 Z"/></g>
<g><path style="opacity:1" fill="#fbc250" d="M 57.5,193.5 C 103.5,193.5 149.5,193.5 195.5,193.5C 196.245,208.91 204.245,217.577 219.5,219.5C 219.5,223.833 219.5,228.167 219.5,232.5C 198.833,232.5 178.167,232.5 157.5,232.5C 163.667,230.507 168.167,226.507 171,220.5C 174.274,207.882 169.774,199.382 157.5,195C 145.838,194.5 134.171,194.333 122.5,194.5C 105.833,194.5 89.1667,194.5 72.5,194.5C 67.3054,194.821 62.3054,194.487 57.5,193.5 Z"/></g>
<g><path style="opacity:1" fill="#ffc751" d="M 310.5,194.5 C 319.5,194.5 328.5,194.5 337.5,194.5C 324.979,201.562 321.812,211.562 328,224.5C 330.772,227.783 333.939,230.45 337.5,232.5C 320.5,232.5 303.5,232.5 286.5,232.5C 286.5,228.167 286.5,223.833 286.5,219.5C 301.284,217.716 309.284,209.382 310.5,194.5 Z"/></g>
<g><path style="opacity:1" fill="#ffdf59" d="M 337.5,194.5 C 356.167,194.5 374.833,194.5 393.5,194.5C 380.988,201.537 377.821,211.537 384,224.5C 386.772,227.783 389.939,230.45 393.5,232.5C 375.833,232.5 358.167,232.5 340.5,232.5C 339.5,232.5 338.5,232.5 337.5,232.5C 333.939,230.45 330.772,227.783 328,224.5C 321.812,211.562 324.979,201.562 337.5,194.5 Z"/></g>
<g><path style="opacity:1" fill="#fff26f" d="M 393.5,194.5 C 404.5,194.5 415.5,194.5 426.5,194.5C 440.715,200.972 444.215,211.305 437,225.5C 434.222,228.807 430.722,230.974 426.5,232C 415.505,232.5 404.505,232.667 393.5,232.5C 389.939,230.45 386.772,227.783 384,224.5C 377.821,211.537 380.988,201.537 393.5,194.5 Z"/></g>
<g><path style="opacity:1" fill="#ffdd58" d="M 426.5,194.5 C 434.167,194.5 441.833,194.5 449.5,194.5C 450.167,194.5 450.833,194.5 451.5,194.5C 455.502,195.929 459.002,198.262 462,201.5C 469.254,214.998 466.088,225.332 452.5,232.5C 415.027,233.818 377.694,233.818 340.5,232.5C 358.167,232.5 375.833,232.5 393.5,232.5C 404.505,232.667 415.505,232.5 426.5,232C 430.722,230.974 434.222,228.807 437,225.5C 444.215,211.305 440.715,200.972 426.5,194.5 Z"/></g>
<g><path style="opacity:1" fill="#ffc751" d="M -0.5,203.5 C 3.40114,218.401 12.7345,228.068 27.5,232.5C 18.1667,232.5 8.83333,232.5 -0.5,232.5C -0.5,222.833 -0.5,213.167 -0.5,203.5 Z"/></g>
<g><path style="opacity:1" fill="#813c2e" d="M 265.5,241.5 C 267.196,251.125 263.529,257.458 254.5,260.5C 247.739,260.908 243.239,257.908 241,251.5C 240.333,241.167 240.333,230.833 241,220.5C 241.883,217.898 243.383,215.731 245.5,214C 254.525,209.929 261.025,212.429 265,221.5C 265.5,228.158 265.666,234.825 265.5,241.5 Z"/></g>
<g><path style="opacity:1" fill="#ffaf4a" d="M 155.5,233.5 C 155.5,233.167 155.5,232.833 155.5,232.5C 156.167,232.5 156.833,232.5 157.5,232.5C 178.167,232.5 198.833,232.5 219.5,232.5C 219.824,239.354 219.491,246.021 218.5,252.5C 218.5,246.167 218.5,239.833 218.5,233.5C 197.5,233.5 176.5,233.5 155.5,233.5 Z"/></g>
<g><path style="opacity:1" fill="#ff993a" d="M -0.5,232.5 C 8.83333,232.5 18.1667,232.5 27.5,232.5C 70.143,233.478 112.81,233.812 155.5,233.5C 176.5,233.5 197.5,233.5 218.5,233.5C 218.5,239.833 218.5,246.167 218.5,252.5C 145.5,252.5 72.5,252.5 -0.5,252.5C -0.5,245.833 -0.5,239.167 -0.5,232.5 Z"/></g>
<g><path style="opacity:1" fill="#ff993a" d="M 286.5,232.5 C 303.5,232.5 320.5,232.5 337.5,232.5C 338.5,232.5 339.5,232.5 340.5,232.5C 377.694,233.818 415.027,233.818 452.5,232.5C 472.167,232.5 491.833,232.5 511.5,232.5C 511.5,265.167 511.5,297.833 511.5,330.5C 500.022,360.274 483.689,386.941 462.5,410.5C 462.5,371.5 462.5,332.5 462.5,293.5C 469.476,280.377 475.81,266.877 481.5,253C 417.501,252.5 353.501,252.333 289.5,252.5C 288.5,252.5 287.5,252.5 286.5,252.5C 286.5,245.833 286.5,239.167 286.5,232.5 Z"/></g>
<g><path style="opacity:0.998" fill="#feae40" d="M -0.5,252.5 C 72.5,252.5 145.5,252.5 218.5,252.5C 214.301,253.084 210.301,254.584 206.5,257C 193.401,268.702 192.068,281.535 202.5,295.5C 202.833,296.167 203.167,296.833 203.5,297.5C 203.5,303.167 203.5,308.833 203.5,314.5C 203.5,360.167 203.5,405.833 203.5,451.5C 186.833,451.5 170.167,451.5 153.5,451.5C 153.5,400.167 153.5,348.833 153.5,297.5C 153.666,289.16 153.5,280.827 153,272.5C 151.833,268.667 149.333,266.167 145.5,265C 115.833,264.333 86.1667,264.333 56.5,265C 52.5817,266.083 50.2483,268.583 49.5,272.5C 48.5073,280.65 48.1739,288.983 48.5,297.5C 48.5,348.833 48.5,400.167 48.5,451.5C 34.496,451.667 20.496,451.5 6.5,451C 3.37935,450.033 1.04602,448.2 -0.5,445.5C -0.5,434.167 -0.5,422.833 -0.5,411.5C 4.20813,426.357 14.2081,431.524 29.5,427C 35.0697,424.057 38.9031,419.557 41,413.5C 41.5,391.169 41.6666,368.836 41.5,346.5C 41.5,336.167 41.5,325.833 41.5,315.5C 41.6665,305.494 41.4998,295.494 41,285.5C 35.9787,272.905 26.8121,268.072 13.5,271C 6.67458,273.871 2.00791,278.704 -0.5,285.5C -0.5,274.5 -0.5,263.5 -0.5,252.5 Z"/></g>
<g><path style="opacity:1" fill="#feae3f" d="M 289.5,252.5 C 353.501,252.333 417.501,252.5 481.5,253C 475.81,266.877 469.476,280.377 462.5,293.5C 462.825,286.313 462.491,279.313 461.5,272.5C 460.752,268.583 458.418,266.083 454.5,265C 424.833,264.333 395.167,264.333 365.5,265C 361.582,266.083 359.248,268.583 358.5,272.5C 357.507,280.65 357.174,288.983 357.5,297.5C 357.5,339.167 357.5,380.833 357.5,422.5C 341.882,432.307 325.216,439.973 307.5,445.5C 307.832,393.997 307.499,342.664 306.5,291.5C 314.322,274.305 309.656,261.638 292.5,253.5C 291.209,253.737 290.209,253.404 289.5,252.5 Z"/></g>
<g><path style="opacity:1" fill="#fedf59" d="M 292.5,253.5 C 309.656,261.638 314.322,274.305 306.5,291.5C 299.605,301.666 289.939,305.666 277.5,303.5C 274.125,319.688 264.125,326.854 247.5,325C 240.584,323.234 235.251,319.401 231.5,313.5C 237.613,312.638 243.613,311.138 249.5,309C 273.577,297.997 287.91,279.497 292.5,253.5 Z"/></g>
<g><path style="opacity:1" fill="#a1412b" d="M 153.5,297.5 C 152.501,348.331 152.168,399.331 152.5,450.5C 124.831,450.667 97.1647,450.5 69.5,450C 109.22,413.035 129.22,367.201 129.5,312.5C 129.354,304.819 129.02,297.152 128.5,289.5C 104.498,289.333 80.4977,289.5 56.5,290C 53.4173,290.786 51.2506,292.619 50,295.5C 49.5003,287.841 49.3336,280.174 49.5,272.5C 50.2483,268.583 52.5817,266.083 56.5,265C 86.1667,264.333 115.833,264.333 145.5,265C 149.333,266.167 151.833,268.667 153,272.5C 153.5,280.827 153.666,289.16 153.5,297.5 Z"/></g>
<g><path style="opacity:1" fill="#a1412b" d="M 461.5,272.5 C 461.5,331.833 461.5,391.167 461.5,450.5C 433.831,450.667 406.165,450.5 378.5,450C 424.124,406.317 443.791,352.817 437.5,289.5C 413.498,289.333 389.498,289.5 365.5,290C 362.417,290.786 360.251,292.619 359,295.5C 358.5,287.841 358.334,280.174 358.5,272.5C 359.248,268.583 361.582,266.083 365.5,265C 395.167,264.333 424.833,264.333 454.5,265C 458.418,266.083 460.752,268.583 461.5,272.5 Z"/></g>
<g><path style="opacity:1" fill="#ffc650" d="M 41.5,315.5 C 34.7884,300.205 23.7884,296.039 8.5,303C 4.49052,306.161 1.49052,309.994 -0.5,314.5C -0.5,304.833 -0.5,295.167 -0.5,285.5C 2.00791,278.704 6.67458,273.871 13.5,271C 26.8121,268.072 35.9787,272.905 41,285.5C 41.4998,295.494 41.6665,305.494 41.5,315.5 Z"/></g>
<g><path style="opacity:1" fill="#b45333" d="M 49.5,272.5 C 49.3336,280.174 49.5003,287.841 50,295.5C 51.2506,292.619 53.4173,290.786 56.5,290C 80.4977,289.5 104.498,289.333 128.5,289.5C 129.02,297.152 129.354,304.819 129.5,312.5C 129.22,367.201 109.22,413.035 69.5,450C 97.1647,450.5 124.831,450.667 152.5,450.5C 152.168,399.331 152.501,348.331 153.5,297.5C 153.5,348.833 153.5,400.167 153.5,451.5C 125.167,451.5 96.8333,451.5 68.5,451.5C 62.3554,450.51 56.0221,450.177 49.5,450.5C 49.8322,399.331 49.4989,348.331 48.5,297.5C 48.1739,288.983 48.5073,280.65 49.5,272.5 Z"/></g>
<g><path style="opacity:1" fill="#b45333" d="M 358.5,272.5 C 358.334,280.174 358.5,287.841 359,295.5C 360.251,292.619 362.417,290.786 365.5,290C 389.498,289.5 413.498,289.333 437.5,289.5C 443.791,352.817 424.124,406.317 378.5,450C 406.165,450.5 433.831,450.667 461.5,450.5C 461.5,391.167 461.5,331.833 461.5,272.5C 462.491,279.313 462.825,286.313 462.5,293.5C 462.5,332.5 462.5,371.5 462.5,410.5C 462.5,424.167 462.5,437.833 462.5,451.5C 434.167,451.5 405.833,451.5 377.5,451.5C 371.355,450.51 365.022,450.177 358.5,450.5C 358.832,399.331 358.499,348.331 357.5,297.5C 357.174,288.983 357.507,280.65 358.5,272.5 Z"/></g>
<g><path style="opacity:1" fill="#a1412b" d="M 306.5,291.5 C 307.499,342.664 307.832,393.997 307.5,445.5C 307.5,447.167 307.5,448.833 307.5,450.5C 279.831,450.667 252.165,450.5 224.5,450C 261.327,415.172 280.993,372.339 283.5,321.5C 281.5,321.167 279.5,320.833 277.5,320.5C 276.265,331.122 270.598,338.289 260.5,342C 242.96,344.726 231.626,337.56 226.5,320.5C 217.768,322.589 210.101,320.589 203.5,314.5C 203.5,308.833 203.5,303.167 203.5,297.5C 210.301,303.099 217.968,304.766 226.5,302.5C 227.985,306.305 229.652,309.972 231.5,313.5C 235.251,319.401 240.584,323.234 247.5,325C 264.125,326.854 274.125,319.688 277.5,303.5C 289.939,305.666 299.605,301.666 306.5,291.5 Z"/></g>
<g><path style="opacity:1" fill="#ffdf58" d="M 41.5,315.5 C 41.5,325.833 41.5,336.167 41.5,346.5C 34.7826,361.856 23.7826,366.022 8.5,359C 4.1179,355.701 1.1179,351.534 -0.5,346.5C -0.5,335.833 -0.5,325.167 -0.5,314.5C 1.49052,309.994 4.49052,306.161 8.5,303C 23.7884,296.039 34.7884,300.205 41.5,315.5 Z"/></g>
<g><path style="opacity:1" fill="#d67d39" d="M 48.5,297.5 C 49.4989,348.331 49.8322,399.331 49.5,450.5C 56.0221,450.177 62.3554,450.51 68.5,451.5C 61.8333,451.5 55.1667,451.5 48.5,451.5C 48.5,400.167 48.5,348.833 48.5,297.5 Z"/></g>
<g><path style="opacity:1" fill="#cc6e37" d="M 357.5,297.5 C 358.499,348.331 358.832,399.331 358.5,450.5C 365.022,450.177 371.355,450.51 377.5,451.5C 370.833,451.5 364.167,451.5 357.5,451.5C 357.5,441.833 357.5,432.167 357.5,422.5C 357.5,380.833 357.5,339.167 357.5,297.5 Z"/></g>
<g><path style="opacity:1" fill="#b45333" d="M 203.5,314.5 C 210.101,320.589 217.768,322.589 226.5,320.5C 231.626,337.56 242.96,344.726 260.5,342C 270.598,338.289 276.265,331.122 277.5,320.5C 279.5,320.833 281.5,321.167 283.5,321.5C 280.993,372.339 261.327,415.172 224.5,450C 252.165,450.5 279.831,450.667 307.5,450.5C 307.5,450.833 307.5,451.167 307.5,451.5C 272.833,451.5 238.167,451.5 203.5,451.5C 203.5,405.833 203.5,360.167 203.5,314.5 Z"/></g>
<g><path style="opacity:1" fill="#f97c15" d="M 511.5,330.5 C 511.5,368.833 511.5,407.167 511.5,445.5C 509.954,448.2 507.621,450.033 504.5,451C 490.504,451.5 476.504,451.667 462.5,451.5C 462.5,437.833 462.5,424.167 462.5,410.5C 483.689,386.941 500.022,360.274 511.5,330.5 Z"/></g>
<g><path style="opacity:1" fill="#ffc650" d="M -0.5,346.5 C 1.1179,351.534 4.1179,355.701 8.5,359C 23.7826,366.022 34.7826,361.856 41.5,346.5C 41.6666,368.836 41.5,391.169 41,413.5C 38.9031,419.557 35.0697,424.057 29.5,427C 14.2081,431.524 4.20813,426.357 -0.5,411.5C -0.5,389.833 -0.5,368.167 -0.5,346.5 Z"/></g>
<g><path style="opacity:1" fill="#fe993a" d="M 357.5,422.5 C 357.5,432.167 357.5,441.833 357.5,451.5C 340.833,451.5 324.167,451.5 307.5,451.5C 307.5,451.167 307.5,450.833 307.5,450.5C 307.5,448.833 307.5,447.167 307.5,445.5C 325.216,439.973 341.882,432.307 357.5,422.5 Z"/></g>
</svg>