<?xml version="1.0" encoding="UTF-8"?>
<!DOCTYPE svg PUBLIC "-//W3C//DTD SVG 1.1//EN" "http://www.w3.org/Graphics/SVG/1.1/DTD/svg11.dtd">
<svg xmlns="http://www.w3.org/2000/svg" version="1.1" width="512px" height="512px" style="shape-rendering:geometricPrecision; text-rendering:geometricPrecision; image-rendering:optimizeQuality; fill-rule:evenodd; clip-rule:evenodd" xmlns:xlink="http://www.w3.org/1999/xlink">
<g><path style="opacity:1" fill="#76e1f7" d="M 251.5,60.5 C 249.481,61.9334 247.314,63.2668 245,64.5C 219.017,98.3087 192.517,131.642 165.5,164.5C 133.22,131.29 101.387,97.6232 70,63.5C 69.3292,62.7476 68.4959,62.4142 67.5,62.5C 67.9175,61.7784 68.5842,61.2784 69.5,61C 130.166,60.5 190.832,60.3333 251.5,60.5 Z"/></g>
<g><path style="opacity:1" fill="#95fef6" d="M 251.5,60.5 C 252.833,60.5 254.167,60.5 255.5,60.5C 255.5,95.5 255.5,130.5 255.5,165.5C 225.5,165.5 195.5,165.5 165.5,165.5C 165.5,165.167 165.5,164.833 165.5,164.5C 192.517,131.642 219.017,98.3087 245,64.5C 247.314,63.2668 249.481,61.9334 251.5,60.5 Z"/></g>
<g><path style="opacity:1" fill="#65bfee" d="M 260.5,60.5 C 321.238,60.1707 381.905,60.5041 442.5,61.5C 415.539,90.9634 388.372,120.297 361,149.5C 355.965,154.703 350.798,159.703 345.5,164.5C 319.445,132.085 293.612,99.4179 268,66.5C 265.886,63.8792 263.386,61.8792 260.5,60.5 Z"/></g>
<g><path style="opacity:1" fill="#76e1f7" d="M 255.5,60.5 C 257.167,60.5 258.833,60.5 260.5,60.5C 263.386,61.8792 265.886,63.8792 268,66.5C 293.612,99.4179 319.445,132.085 345.5,164.5C 345.5,164.833 345.5,165.167 345.5,165.5C 315.5,165.5 285.5,165.5 255.5,165.5C 255.5,130.5 255.5,95.5 255.5,60.5 Z"/></g>
<g><path style="opacity:0.996" fill="#66c0ee" d="M 67.5,62.5 C 68.4959,62.4142 69.3292,62.7476 70,63.5C 101.387,97.6232 133.22,131.29 165.5,164.5C 165.5,164.833 165.5,165.167 165.5,165.5C 110.167,165.5 54.8333,165.5 -0.5,165.5C -0.5,163.5 -0.5,161.5 -0.5,159.5C 20.9771,127.899 42.4771,96.2325 64,64.5C 65.1127,63.695 66.2794,63.0283 67.5,62.5 Z"/></g>
<g><path style="opacity:0.995" fill="#3aaafe" d="M 442.5,61.5 C 445.785,62.9498 448.285,65.2832 450,68.5C 470.363,99.0108 490.863,129.344 511.5,159.5C 511.5,161.5 511.5,163.5 511.5,165.5C 456.167,165.5 400.833,165.5 345.5,165.5C 345.5,165.167 345.5,164.833 345.5,164.5C 350.798,159.703 355.965,154.703 361,149.5C 388.372,120.297 415.539,90.9634 442.5,61.5 Z"/></g>
<g><path style="opacity:0.996" fill="#96fef6" d="M -0.5,165.5 C 54.8333,165.5 110.167,165.5 165.5,165.5C 192.119,258.64 218.119,351.973 243.5,445.5C 161.796,354.464 80.4622,263.131 -0.5,171.5C -0.5,169.5 -0.5,167.5 -0.5,165.5 Z"/></g>
<g><path style="opacity:1" fill="#76e2f7" d="M 165.5,165.5 C 195.5,165.5 225.5,165.5 255.5,165.5C 255.5,260.5 255.5,355.5 255.5,450.5C 250.513,451.001 246.513,449.335 243.5,445.5C 218.119,351.973 192.119,258.64 165.5,165.5 Z"/></g>
<g><path style="opacity:1" fill="#66c0ee" d="M 255.5,165.5 C 285.5,165.5 315.5,165.5 345.5,165.5C 319.292,259.211 292.958,352.878 266.5,446.5C 263.631,449.758 259.964,451.091 255.5,450.5C 255.5,355.5 255.5,260.5 255.5,165.5 Z"/></g>
<g><path style="opacity:0.996" fill="#75e1f7" d="M 345.5,165.5 C 400.833,165.5 456.167,165.5 511.5,165.5C 511.5,167.5 511.5,169.5 511.5,171.5C 430.204,263.464 348.538,355.131 266.5,446.5C 292.958,352.878 319.292,259.211 345.5,165.5 Z"/></g>
</svg>
