<?xml version="1.0" encoding="UTF-8"?>
<!DOCTYPE svg PUBLIC "-//W3C//DTD SVG 1.1//EN" "http://www.w3.org/Graphics/SVG/1.1/DTD/svg11.dtd">
<svg xmlns="http://www.w3.org/2000/svg" version="1.1" width="512px" height="512px" style="shape-rendering:geometricPrecision; text-rendering:geometricPrecision; image-rendering:optimizeQuality; fill-rule:evenodd; clip-rule:evenodd" xmlns:xlink="http://www.w3.org/1999/xlink">
<g><path style="opacity:0.975" fill="#fc9202" d="M 185.5,-0.5 C 189.167,-0.5 192.833,-0.5 196.5,-0.5C 217.325,9.41374 236.325,22.0804 253.5,37.5C 232.598,38.1774 211.598,38.844 190.5,39.5C 187.708,31.9554 185.208,24.2887 183,16.5C 182.333,12.1667 182.333,7.83333 183,3.5C 183.662,2.01608 184.496,0.682751 185.5,-0.5 Z"/></g>
<g><path style="opacity:0.988" fill="#fc8c03" d="M 253.5,37.5 C 268.974,49.9697 282.308,64.303 293.5,80.5C 262.167,80.5 230.833,80.5 199.5,80.5C 198.666,66.3279 195.666,52.6612 190.5,39.5C 211.598,38.844 232.598,38.1774 253.5,37.5 Z"/></g>
<g><path style="opacity:0.993" fill="#fc8604" d="M 199.5,80.5 C 230.833,80.5 262.167,80.5 293.5,80.5C 303.085,93.325 311.419,106.992 318.5,121.5C 277.167,122.833 235.833,122.833 194.5,121.5C 198.131,108.081 199.798,94.4144 199.5,80.5 Z"/></g>
<g><path style="opacity:0.993" fill="#fd7f05" d="M 194.5,121.5 C 235.833,122.833 277.167,122.833 318.5,121.5C 327.237,137.03 334.237,153.363 339.5,170.5C 283.336,171.499 227.002,171.832 170.5,171.5C 180.124,155.587 188.124,138.92 194.5,121.5 Z"/></g>
<g><path style="opacity:0.971" fill="#fd7f05" d="M 404.5,172.5 C 386.243,171.514 367.91,171.18 349.5,171.5C 356.317,158.583 361.15,144.916 364,130.5C 366.679,127.165 369.845,126.665 373.5,129C 385.63,142.285 395.964,156.785 404.5,172.5 Z"/></g>
<g><path style="opacity:0.996" fill="#fd7906" d="M 170.5,171.5 C 227.002,171.832 283.336,171.499 339.5,170.5C 341.132,173.558 342.299,176.891 343,180.5C 345.188,177.433 347.355,174.433 349.5,171.5C 367.91,171.18 386.243,171.514 404.5,172.5C 413.32,185.138 420.32,198.804 425.5,213.5C 370.664,213.168 315.997,213.501 261.5,214.5C 257.513,207.33 252.513,200.83 246.5,195C 242.526,192.636 239.026,193.136 236,196.5C 233.583,203.005 230.417,209.005 226.5,214.5C 182.99,214.165 139.657,213.165 96.5,211.5C 101.884,198.058 106.717,184.392 111,170.5C 112.655,163.921 116.488,162.088 122.5,165C 133.075,176.709 138.575,190.542 139,206.5C 150.847,195.832 161.347,184.165 170.5,171.5 Z"/></g>
<g><path style="opacity:1" fill="#fc9402" d="M 261.5,214.5 C 270.29,228.416 278.29,242.749 285.5,257.5C 293.916,277.075 299.75,297.409 303,318.5C 310.041,313.126 316.041,306.793 321,299.5C 325.257,291.319 329.257,282.986 333,274.5C 338.887,267.867 344.554,268.201 350,275.5C 355.105,282.727 359.939,290.061 364.5,297.5C 372.316,313.623 378.316,330.29 382.5,347.5C 384.071,361.115 384.738,374.782 384.5,388.5C 383.392,402.927 380.392,416.927 375.5,430.5C 354.953,475.449 320.286,502.115 271.5,510.5C 270.508,510.328 269.842,510.662 269.5,511.5C 259.833,511.5 250.167,511.5 240.5,511.5C 239.432,510.566 238.099,510.232 236.5,510.5C 188.506,501.346 154.173,474.679 133.5,430.5C 128.358,416.992 125.358,402.992 124.5,388.5C 123.85,374.685 124.85,361.019 127.5,347.5C 133.981,329.539 143.314,313.206 155.5,298.5C 168.107,284.557 181.107,270.89 194.5,257.5C 206.701,244.301 217.367,229.967 226.5,214.5C 230.417,209.005 233.583,203.005 236,196.5C 239.026,193.136 242.526,192.636 246.5,195C 252.513,200.83 257.513,207.33 261.5,214.5 Z"/></g>
<g><path style="opacity:0.998" fill="#fd7306" d="M 96.5,211.5 C 139.657,213.165 182.99,214.165 226.5,214.5C 217.367,229.967 206.701,244.301 194.5,257.5C 155.848,255.506 116.848,254.839 77.5,255.5C 83.0734,240.427 89.4067,225.761 96.5,211.5 Z"/></g>
<g><path style="opacity:0.998" fill="#fd7306" d="M 425.5,213.5 C 431.408,226.898 435.741,240.898 438.5,255.5C 387.156,254.838 336.156,255.504 285.5,257.5C 278.29,242.749 270.29,228.416 261.5,214.5C 315.997,213.501 370.664,213.168 425.5,213.5 Z"/></g>
<g><path style="opacity:0.996" fill="#fe6d07" d="M 77.5,255.5 C 116.848,254.839 155.848,255.506 194.5,257.5C 181.107,270.89 168.107,284.557 155.5,298.5C 125.986,298.164 96.6524,297.164 67.5,295.5C 68.9936,281.69 72.327,268.356 77.5,255.5 Z"/></g>
<g><path style="opacity:0.997" fill="#fd6d07" d="M 438.5,255.5 C 441.627,269.311 443.294,283.311 443.5,297.5C 417.167,297.5 390.833,297.5 364.5,297.5C 359.939,290.061 355.105,282.727 350,275.5C 344.554,268.201 338.887,267.867 333,274.5C 329.257,282.986 325.257,291.319 321,299.5C 316.041,306.793 310.041,313.126 303,318.5C 299.75,297.409 293.916,277.075 285.5,257.5C 336.156,255.504 387.156,254.838 438.5,255.5 Z"/></g>
<g><path style="opacity:0.995" fill="#fd6708" d="M 67.5,295.5 C 96.6524,297.164 125.986,298.164 155.5,298.5C 143.314,313.206 133.981,329.539 127.5,347.5C 107.108,347.143 86.7742,346.143 66.5,344.5C 64.8782,327.973 65.2115,311.64 67.5,295.5 Z"/></g>
<g><path style="opacity:0.993" fill="#fe6708" d="M 364.5,297.5 C 390.833,297.5 417.167,297.5 443.5,297.5C 444.88,314.329 444.214,330.996 441.5,347.5C 421.833,346.167 402.167,346.167 382.5,347.5C 378.316,330.29 372.316,313.623 364.5,297.5 Z"/></g>
<g><path style="opacity:0.993" fill="#fe6009" d="M 66.5,344.5 C 86.7742,346.143 107.108,347.143 127.5,347.5C 124.85,361.019 123.85,374.685 124.5,388.5C 108.991,388.17 93.6576,388.504 78.5,389.5C 72.2366,375.218 68.2366,360.218 66.5,344.5 Z"/></g>
<g><path style="opacity:0.994" fill="#fe6009" d="M 441.5,347.5 C 440.05,361.966 436.717,375.966 431.5,389.5C 415.911,388.516 400.244,388.183 384.5,388.5C 384.738,374.782 384.071,361.115 382.5,347.5C 402.167,346.167 421.833,346.167 441.5,347.5 Z"/></g>
<g><path style="opacity:1" fill="#fce101" d="M 252.5,368.5 C 259.789,367.644 265.289,370.31 269,376.5C 279.786,404.737 291.119,432.737 303,460.5C 304.8,486.721 292.967,503.221 267.5,510C 231.614,513.465 210.78,497.298 205,461.5C 203.695,427.602 215.529,399.102 240.5,376C 244.396,373.225 248.396,370.725 252.5,368.5 Z"/></g>
<g><path style="opacity:0.991" fill="#fe5a0a" d="M 124.5,388.5 C 125.358,402.992 128.358,416.992 133.5,430.5C 122.5,430.5 111.5,430.5 100.5,430.5C 90.8462,418.199 83.5129,404.533 78.5,389.5C 93.6576,388.504 108.991,388.17 124.5,388.5 Z"/></g>
<g><path style="opacity:0.991" fill="#fe5a0a" d="M 384.5,388.5 C 400.244,388.183 415.911,388.516 431.5,389.5C 425.878,404.754 418.211,418.754 408.5,431.5C 397.679,430.505 386.679,430.172 375.5,430.5C 380.392,416.927 383.392,402.927 384.5,388.5 Z"/></g>
<g><path style="opacity:0.984" fill="#fe540b" d="M 100.5,430.5 C 111.5,430.5 122.5,430.5 133.5,430.5C 154.173,474.679 188.506,501.346 236.5,510.5C 179.089,503.814 133.756,477.147 100.5,430.5 Z"/></g>
<g><path style="opacity:0.985" fill="#fe540b" d="M 375.5,430.5 C 386.679,430.172 397.679,430.505 408.5,431.5C 383.68,467.107 350.347,491.274 308.5,504C 296.383,507.464 284.05,509.63 271.5,510.5C 320.286,502.115 354.953,475.449 375.5,430.5 Z"/></g>
</svg>
