<svg xmlns="http://www.w3.org/2000/svg" xmlns:xlink="http://www.w3.org/1999/xlink" version="1.1" width="512px" height="512px" style="shape-rendering:geometricPrecision; text-rendering:geometricPrecision; image-rendering:optimizeQuality; fill-rule:evenodd; clip-rule:evenodd">
<g><path style="opacity:1" fill="#fec458" d="M 237.5,-0.5 C 249.5,-0.5 261.5,-0.5 273.5,-0.5C 273.5,0.166667 273.833,0.5 274.5,0.5C 211.204,12.7552 168.037,49.0885 145,109.5C 127.97,169.025 139.303,222.359 179,269.5C 191.537,282.212 205.37,293.212 220.5,302.5C 223.27,305.257 225.604,308.257 227.5,311.5C 227.5,327.833 227.5,344.167 227.5,360.5C 214.989,360.171 202.655,360.505 190.5,361.5C 189.167,361.833 187.833,362.167 186.5,362.5C 186.667,347.496 186.5,332.496 186,317.5C 184.483,311.318 181.317,306.151 176.5,302C 116.879,265.261 89.7121,211.761 95,141.5C 104.007,80.9518 136.174,37.7851 191.5,12C 206.455,5.93076 221.788,1.76409 237.5,-0.5 Z"/></g>
<g><path style="opacity:0.997" fill="#fee081" d="M 274.5,0.5 C 330.282,8.12499 371.782,36.4583 399,85.5C 424.779,139.373 423.112,192.373 394,244.5C 378.739,268.428 358.906,287.594 334.5,302C 329.683,306.151 326.517,311.318 325,317.5C 324.5,332.496 324.333,347.496 324.5,362.5C 279.876,361.51 235.209,361.177 190.5,361.5C 202.655,360.505 214.989,360.171 227.5,360.5C 232.833,360.5 238.167,360.5 243.5,360.5C 251.5,360.5 259.5,360.5 267.5,360.5C 272.833,360.5 278.167,360.5 283.5,360.5C 283.333,336.164 283.5,311.831 284,287.5C 288.755,280.324 293.755,273.324 299,266.5C 300.608,263.618 301.941,260.618 303,257.5C 304.444,235.878 304.944,214.212 304.5,192.5C 311.109,191.742 313.276,188.075 311,181.5C 309.587,179.586 307.753,178.253 305.5,177.5C 302.477,168.983 297.31,167.316 290,172.5C 288.991,174.025 288.491,175.692 288.5,177.5C 266.5,177.5 244.5,177.5 222.5,177.5C 221.318,170.733 217.318,168.233 210.5,170C 207.603,171.715 206.269,174.215 206.5,177.5C 197.647,180.263 196.314,185.097 202.5,192C 203.793,192.49 205.127,192.657 206.5,192.5C 206.333,212.503 206.5,232.503 207,252.5C 207.592,256.276 208.592,259.943 210,263.5C 216.055,271.222 221.722,279.222 227,287.5C 227.5,295.493 227.666,303.493 227.5,311.5C 225.604,308.257 223.27,305.257 220.5,302.5C 205.37,293.212 191.537,282.212 179,269.5C 139.303,222.359 127.97,169.025 145,109.5C 168.037,49.0885 211.204,12.7552 274.5,0.5 Z"/></g>
<g><path style="opacity:1" fill="#ffe9c6" d="M 308.5,43.5 C 311.187,43.3359 313.854,43.5026 316.5,44C 350.35,61.8447 372.35,89.1781 382.5,126C 382.344,133.259 378.677,135.926 371.5,134C 370.667,133.167 369.833,132.333 369,131.5C 359.265,97.0232 338.431,71.6899 306.5,55.5C 303.488,50.9035 304.155,46.9035 308.5,43.5 Z"/></g>
<g><path style="opacity:0.956" fill="#fec457" d="M 38.5,90.5 C 50.2804,92.5372 61.6138,96.2039 72.5,101.5C 77.4054,108.689 75.7387,113.689 67.5,116.5C 57.7243,113.297 48.0576,109.797 38.5,106C 33.208,100.835 33.208,95.6682 38.5,90.5 Z"/></g>
<g><path style="opacity:0.954" fill="#fec457" d="M 464.5,90.5 C 473.657,89.4892 477.49,93.4892 476,102.5C 474.833,103.667 473.667,104.833 472.5,106C 462.942,109.797 453.276,113.297 443.5,116.5C 435.843,114.018 433.843,109.185 437.5,102C 446.589,98.115 455.589,94.2816 464.5,90.5 Z"/></g>
<g><path style="opacity:0.959" fill="#fec458" d="M 26.5,148.5 C 37.8382,148.333 49.1716,148.5 60.5,149C 67.1667,154 67.1667,159 60.5,164C 49.1667,164.667 37.8333,164.667 26.5,164C 21.208,158.835 21.208,153.668 26.5,148.5 Z"/></g>
<g><path style="opacity:0.958" fill="#fec458" d="M 450.5,148.5 C 461.838,148.333 473.172,148.5 484.5,149C 489.833,154 489.833,159 484.5,164C 473.167,164.667 461.833,164.667 450.5,164C 443.914,158.84 443.914,153.673 450.5,148.5 Z"/></g>
<g><path style="opacity:1" fill="#fec356" d="M 304.5,192.5 C 299.5,192.5 294.5,192.5 289.5,192.5C 289.83,212.007 289.497,231.341 288.5,250.5C 288.5,231.167 288.5,211.833 288.5,192.5C 266.5,192.5 244.5,192.5 222.5,192.5C 222.5,212.167 222.5,231.833 222.5,251.5C 221.503,232.007 221.17,212.34 221.5,192.5C 216.5,192.5 211.5,192.5 206.5,192.5C 205.127,192.657 203.793,192.49 202.5,192C 196.314,185.097 197.647,180.263 206.5,177.5C 206.269,174.215 207.603,171.715 210.5,170C 217.318,168.233 221.318,170.733 222.5,177.5C 244.5,177.5 266.5,177.5 288.5,177.5C 288.491,175.692 288.991,174.025 290,172.5C 297.31,167.316 302.477,168.983 305.5,177.5C 307.753,178.253 309.587,179.586 311,181.5C 313.276,188.075 311.109,191.742 304.5,192.5 Z"/></g>
<g><path style="opacity:1" fill="#ffb641" d="M 206.5,192.5 C 211.5,192.5 216.5,192.5 221.5,192.5C 221.17,212.34 221.503,232.007 222.5,251.5C 222.755,254.016 223.589,256.35 225,258.5C 233.085,266.909 239.085,276.575 243,287.5C 243.5,311.831 243.667,336.164 243.5,360.5C 238.167,360.5 232.833,360.5 227.5,360.5C 227.5,344.167 227.5,327.833 227.5,311.5C 227.666,303.493 227.5,295.493 227,287.5C 221.722,279.222 216.055,271.222 210,263.5C 208.592,259.943 207.592,256.276 207,252.5C 206.5,232.503 206.333,212.503 206.5,192.5 Z"/></g>
<g><path style="opacity:1" fill="#fee080" d="M 288.5,250.5 C 288.54,253.425 287.707,256.091 286,258.5C 281.333,264.5 276.667,270.5 272,276.5C 270.073,279.948 268.739,283.615 268,287.5C 267.5,311.831 267.333,336.164 267.5,360.5C 259.5,360.5 251.5,360.5 243.5,360.5C 243.667,336.164 243.5,311.831 243,287.5C 239.085,276.575 233.085,266.909 225,258.5C 223.589,256.35 222.755,254.016 222.5,251.5C 222.5,231.833 222.5,212.167 222.5,192.5C 244.5,192.5 266.5,192.5 288.5,192.5C 288.5,211.833 288.5,231.167 288.5,250.5 Z"/></g>
<g><path style="opacity:1" fill="#ffb641" d="M 304.5,192.5 C 304.944,214.212 304.444,235.878 303,257.5C 301.941,260.618 300.608,263.618 299,266.5C 293.755,273.324 288.755,280.324 284,287.5C 283.5,311.831 283.333,336.164 283.5,360.5C 278.167,360.5 272.833,360.5 267.5,360.5C 267.333,336.164 267.5,311.831 268,287.5C 268.739,283.615 270.073,279.948 272,276.5C 276.667,270.5 281.333,264.5 286,258.5C 287.707,256.091 288.54,253.425 288.5,250.5C 289.497,231.341 289.83,212.007 289.5,192.5C 294.5,192.5 299.5,192.5 304.5,192.5 Z"/></g>
<g><path style="opacity:0.958" fill="#fec457" d="M 65.5,196.5 C 72.8077,196.639 75.9744,200.305 75,207.5C 74.4169,209.002 73.5836,210.335 72.5,211.5C 61.6606,216.949 50.3272,220.449 38.5,222C 33.1667,217 33.1667,212 38.5,207C 47.6387,203.57 56.6387,200.07 65.5,196.5 Z"/></g>
<g><path style="opacity:0.958" fill="#fec457" d="M 441.5,196.5 C 452.041,199.292 462.374,202.792 472.5,207C 477.833,212 477.833,217 472.5,222C 460.673,220.449 449.339,216.949 438.5,211.5C 433.997,205.346 434.997,200.346 441.5,196.5 Z"/></g>
<g><path style="opacity:0.997" fill="#eeebee" d="M 190.5,361.5 C 235.209,361.177 279.876,361.51 324.5,362.5C 328.274,363.938 330.607,366.605 331.5,370.5C 329.986,375.513 326.652,378.68 321.5,380C 277.5,380.667 233.5,380.667 189.5,380C 184.348,378.68 181.014,375.513 179.5,370.5C 180.393,366.605 182.726,363.938 186.5,362.5C 187.833,362.167 189.167,361.833 190.5,361.5 Z"/></g>
<g><path style="opacity:1" fill="#e2dfe2" d="M 179.5,370.5 C 181.014,375.513 184.348,378.68 189.5,380C 233.5,380.667 277.5,380.667 321.5,380C 326.652,378.68 329.986,375.513 331.5,370.5C 332.654,376.987 332.821,383.654 332,390.5C 331.065,393.595 329.231,395.929 326.5,397.5C 279.874,399.813 233.207,400.146 186.5,398.5C 182.847,397.011 180.347,394.344 179,390.5C 178.179,383.654 178.346,376.987 179.5,370.5 Z"/></g>
<g><path style="opacity:0.997" fill="#eeebee" d="M 326.5,397.5 C 326.082,398.222 325.416,398.722 324.5,399C 328.446,401.111 331.113,404.278 332.5,408.5C 330.732,410.508 329.066,412.674 327.5,415C 325.283,416.275 322.949,417.275 320.5,418C 277.167,418.667 233.833,418.667 190.5,418C 187.823,417.751 185.49,416.751 183.5,415C 181.934,412.674 180.268,410.508 178.5,408.5C 180.088,404.251 182.755,400.918 186.5,398.5C 233.207,400.146 279.874,399.813 326.5,397.5 Z"/></g>
<g><path style="opacity:1" fill="#e2dfe2" d="M 178.5,408.5 C 180.268,410.508 181.934,412.674 183.5,415C 185.49,416.751 187.823,417.751 190.5,418C 233.833,418.667 277.167,418.667 320.5,418C 322.949,417.275 325.283,416.275 327.5,415C 329.066,412.674 330.732,410.508 332.5,408.5C 332.666,415.175 332.5,421.842 332,428.5C 328.774,435.532 323.274,438.532 315.5,437.5C 275.5,437.5 235.5,437.5 195.5,437.5C 187.726,438.532 182.226,435.532 179,428.5C 178.5,421.842 178.334,415.175 178.5,408.5 Z"/></g>
<g><path style="opacity:0.997" fill="#efecef" d="M 195.5,437.5 C 235.5,437.5 275.5,437.5 315.5,437.5C 318.74,439.639 320.74,442.639 321.5,446.5C 319.77,450.068 317.103,452.902 313.5,455C 274.833,455.667 236.167,455.667 197.5,455C 193.952,452.953 191.285,450.12 189.5,446.5C 190.26,442.639 192.26,439.639 195.5,437.5 Z"/></g>
<g><path style="opacity:1" fill="#e1dee2" d="M 189.5,446.5 C 191.285,450.12 193.952,452.953 197.5,455C 236.167,455.667 274.833,455.667 313.5,455C 317.103,452.902 319.77,450.068 321.5,446.5C 322.653,452.319 322.819,458.319 322,464.5C 320.5,470 317,473.5 311.5,475C 303.507,475.5 295.507,475.666 287.5,475.5C 275.833,475.5 264.167,475.5 252.5,475.5C 242.833,475.5 233.167,475.5 223.5,475.5C 215.493,475.666 207.493,475.5 199.5,475C 194,473.5 190.5,470 189,464.5C 188.181,458.319 188.347,452.319 189.5,446.5 Z"/></g>
<g><path style="opacity:1" fill="#6e60b8" d="M 223.5,475.5 C 233.167,475.5 242.833,475.5 252.5,475.5C 251.939,481.732 252.772,487.732 255,493.5C 259.041,499.362 263.541,504.695 268.5,509.5C 266.597,509.796 264.93,510.463 263.5,511.5C 258.167,511.5 252.833,511.5 247.5,511.5C 231.055,505.309 223.055,493.309 223.5,475.5 Z"/></g>
<g><path style="opacity:0.994" fill="#8478c2" d="M 252.5,475.5 C 264.167,475.5 275.833,475.5 287.5,475.5C 288.419,491.004 282.086,502.337 268.5,509.5C 263.541,504.695 259.041,499.362 255,493.5C 252.772,487.732 251.939,481.732 252.5,475.5 Z"/></g>
</svg>