<?xml version="1.0" encoding="UTF-8"?>
<!DOCTYPE svg PUBLIC "-//W3C//DTD SVG 1.1//EN" "http://www.w3.org/Graphics/SVG/1.1/DTD/svg11.dtd">
<svg xmlns="http://www.w3.org/2000/svg" version="1.1" width="512px" height="512px" style="shape-rendering:geometricPrecision; text-rendering:geometricPrecision; image-rendering:optimizeQuality; fill-rule:evenodd; clip-rule:evenodd" xmlns:xlink="http://www.w3.org/1999/xlink">
<g><path style="opacity:1" fill="#fed301" d="M 207.5,236.5 C 177.684,245.037 148.018,254.037 118.5,263.5C 182.077,177.846 246.743,92.5124 312.5,7.5C 313.363,6.53705 314.03,6.53705 314.5,7.5C 278.548,83.7347 242.882,160.068 207.5,236.5 Z"/></g>
<g><path style="opacity:1" fill="#fec702" d="M 317.5,-0.5 C 318.167,-0.5 318.833,-0.5 319.5,-0.5C 301.368,71.0303 283.701,142.697 266.5,214.5C 308.948,225.029 351.281,236.029 393.5,247.5C 393.145,248.522 392.478,249.189 391.5,249.5C 391.265,248.903 390.765,248.57 390,248.5C 361.292,257.681 332.458,266.348 303.5,274.5C 271.496,261.831 239.496,249.164 207.5,236.5C 242.882,160.068 278.548,83.7347 314.5,7.5C 314.03,6.53705 313.363,6.53705 312.5,7.5C 314.14,4.85079 315.807,2.18412 317.5,-0.5 Z"/></g>
<g><path style="opacity:0.987" fill="#ffb702" d="M 207.5,236.5 C 239.496,249.164 271.496,261.831 303.5,274.5C 266.637,353.094 229.971,431.761 193.5,510.5C 193.5,510.833 193.5,511.167 193.5,511.5C 192.833,511.5 192.167,511.5 191.5,511.5C 209.289,440.56 226.956,369.56 244.5,298.5C 243.619,297.029 242.286,296.196 240.5,296C 199.63,285.451 158.963,274.618 118.5,263.5C 148.018,254.037 177.684,245.037 207.5,236.5 Z"/></g>
<g><path style="opacity:1" fill="#fed301" d="M 391.5,249.5 C 325.731,336.718 259.731,423.718 193.5,510.5C 229.971,431.761 266.637,353.094 303.5,274.5C 332.458,266.348 361.292,257.681 390,248.5C 390.765,248.57 391.265,248.903 391.5,249.5 Z"/></g>
</svg>
